<mxfile host="app.diagrams.net" modified="2024-05-01T17:14:18.960Z" agent="Mozilla/5.0 (Windows NT 10.0; Win64; x64) AppleWebKit/537.36 (KHTML, like Gecko) Chrome/124.0.0.0 Safari/537.36" etag="4bipt16myMxRCYFeXi88" version="24.3.1" type="github">
  <diagram name="PÃ¡gina-1" id="RG81tBduf7GuAwrDdT9L">
    <mxGraphModel dx="1581" dy="777" grid="1" gridSize="10" guides="1" tooltips="1" connect="1" arrows="1" fold="1" page="1" pageScale="1" pageWidth="827" pageHeight="1169" math="0" shadow="0">
      <root>
        <mxCell id="0" />
        <mxCell id="1" parent="0" />
        <mxCell id="y_6HAnA4AnNZ5Ou7yBOp-1" value="Proveedores" style="rounded=0;whiteSpace=wrap;html=1;" vertex="1" parent="1">
          <mxGeometry x="40" y="120" width="100" height="40" as="geometry" />
        </mxCell>
        <mxCell id="y_6HAnA4AnNZ5Ou7yBOp-2" value="Cliente" style="rounded=0;whiteSpace=wrap;html=1;" vertex="1" parent="1">
          <mxGeometry x="320" y="250" width="100" height="30" as="geometry" />
        </mxCell>
        <mxCell id="y_6HAnA4AnNZ5Ou7yBOp-4" style="edgeStyle=orthogonalEdgeStyle;rounded=0;orthogonalLoop=1;jettySize=auto;html=1;exitX=1;exitY=0.5;exitDx=0;exitDy=0;entryX=0.5;entryY=0;entryDx=0;entryDy=0;" edge="1" parent="1" source="y_6HAnA4AnNZ5Ou7yBOp-3" target="y_6HAnA4AnNZ5Ou7yBOp-2">
          <mxGeometry relative="1" as="geometry" />
        </mxCell>
        <mxCell id="y_6HAnA4AnNZ5Ou7yBOp-3" value="Comprar" style="rhombus;whiteSpace=wrap;html=1;" vertex="1" parent="1">
          <mxGeometry x="250" y="150" width="80" height="80" as="geometry" />
        </mxCell>
        <mxCell id="y_6HAnA4AnNZ5Ou7yBOp-6" style="edgeStyle=orthogonalEdgeStyle;rounded=0;orthogonalLoop=1;jettySize=auto;html=1;exitX=0;exitY=0.5;exitDx=0;exitDy=0;entryX=1.025;entryY=0.65;entryDx=0;entryDy=0;entryPerimeter=0;" edge="1" parent="1" source="y_6HAnA4AnNZ5Ou7yBOp-3" target="y_6HAnA4AnNZ5Ou7yBOp-1">
          <mxGeometry relative="1" as="geometry" />
        </mxCell>
        <mxCell id="y_6HAnA4AnNZ5Ou7yBOp-9" value="Direccion" style="ellipse;whiteSpace=wrap;html=1;" vertex="1" parent="1">
          <mxGeometry x="-80" y="120" width="80" height="60" as="geometry" />
        </mxCell>
        <mxCell id="y_6HAnA4AnNZ5Ou7yBOp-11" value="Nombre" style="ellipse;whiteSpace=wrap;html=1;" vertex="1" parent="1">
          <mxGeometry x="-70" y="40" width="70" height="40" as="geometry" />
        </mxCell>
        <mxCell id="y_6HAnA4AnNZ5Ou7yBOp-12" value="Codigo" style="ellipse;whiteSpace=wrap;html=1;" vertex="1" parent="1">
          <mxGeometry x="-80" y="210" width="80" height="60" as="geometry" />
        </mxCell>
        <mxCell id="y_6HAnA4AnNZ5Ou7yBOp-15" value="" style="endArrow=none;html=1;rounded=0;exitX=1;exitY=0.5;exitDx=0;exitDy=0;entryX=0;entryY=0.75;entryDx=0;entryDy=0;" edge="1" parent="1" source="y_6HAnA4AnNZ5Ou7yBOp-12" target="y_6HAnA4AnNZ5Ou7yBOp-1">
          <mxGeometry width="50" height="50" relative="1" as="geometry">
            <mxPoint x="-20" y="225" as="sourcePoint" />
            <mxPoint x="40" y="155" as="targetPoint" />
          </mxGeometry>
        </mxCell>
        <mxCell id="y_6HAnA4AnNZ5Ou7yBOp-16" value="" style="endArrow=none;html=1;rounded=0;exitX=0.25;exitY=0;exitDx=0;exitDy=0;entryX=0.5;entryY=1;entryDx=0;entryDy=0;" edge="1" parent="1" source="y_6HAnA4AnNZ5Ou7yBOp-1" target="y_6HAnA4AnNZ5Ou7yBOp-11">
          <mxGeometry width="50" height="50" relative="1" as="geometry">
            <mxPoint x="5" y="130" as="sourcePoint" />
            <mxPoint x="55" y="80" as="targetPoint" />
          </mxGeometry>
        </mxCell>
        <mxCell id="y_6HAnA4AnNZ5Ou7yBOp-17" value="" style="endArrow=none;html=1;rounded=0;entryX=0;entryY=0.25;entryDx=0;entryDy=0;exitX=1;exitY=0.5;exitDx=0;exitDy=0;" edge="1" parent="1" source="y_6HAnA4AnNZ5Ou7yBOp-9" target="y_6HAnA4AnNZ5Ou7yBOp-1">
          <mxGeometry width="50" height="50" relative="1" as="geometry">
            <mxPoint x="-10" y="180" as="sourcePoint" />
            <mxPoint x="40" y="130" as="targetPoint" />
          </mxGeometry>
        </mxCell>
        <mxCell id="y_6HAnA4AnNZ5Ou7yBOp-18" value="Productos" style="rounded=0;whiteSpace=wrap;html=1;" vertex="1" parent="1">
          <mxGeometry x="125" y="310" width="90" height="40" as="geometry" />
        </mxCell>
        <mxCell id="y_6HAnA4AnNZ5Ou7yBOp-19" value="Precio" style="ellipse;whiteSpace=wrap;html=1;" vertex="1" parent="1">
          <mxGeometry x="135" y="435" width="70" height="50" as="geometry" />
        </mxCell>
        <mxCell id="y_6HAnA4AnNZ5Ou7yBOp-20" value="Nombre" style="ellipse;whiteSpace=wrap;html=1;" vertex="1" parent="1">
          <mxGeometry x="55" y="390" width="70" height="50" as="geometry" />
        </mxCell>
        <mxCell id="y_6HAnA4AnNZ5Ou7yBOp-21" value="NombreCliente" style="ellipse;whiteSpace=wrap;html=1;" vertex="1" parent="1">
          <mxGeometry x="490" y="150" width="94" height="60" as="geometry" />
        </mxCell>
        <mxCell id="y_6HAnA4AnNZ5Ou7yBOp-22" value="Cedula" style="ellipse;whiteSpace=wrap;html=1;" vertex="1" parent="1">
          <mxGeometry x="534" y="230" width="94" height="40" as="geometry" />
        </mxCell>
        <mxCell id="y_6HAnA4AnNZ5Ou7yBOp-23" value="Direccion" style="ellipse;whiteSpace=wrap;html=1;" vertex="1" parent="1">
          <mxGeometry x="534" y="320" width="84" height="50" as="geometry" />
        </mxCell>
        <mxCell id="y_6HAnA4AnNZ5Ou7yBOp-24" value="" style="endArrow=none;html=1;rounded=0;entryX=1;entryY=0.75;entryDx=0;entryDy=0;exitX=0.5;exitY=0;exitDx=0;exitDy=0;" edge="1" parent="1" source="y_6HAnA4AnNZ5Ou7yBOp-23" target="y_6HAnA4AnNZ5Ou7yBOp-2">
          <mxGeometry width="50" height="50" relative="1" as="geometry">
            <mxPoint x="395" y="360" as="sourcePoint" />
            <mxPoint x="445" y="310" as="targetPoint" />
          </mxGeometry>
        </mxCell>
        <mxCell id="y_6HAnA4AnNZ5Ou7yBOp-25" value="" style="endArrow=none;html=1;rounded=0;entryX=0;entryY=0.5;entryDx=0;entryDy=0;exitX=1.025;exitY=0.4;exitDx=0;exitDy=0;exitPerimeter=0;" edge="1" parent="1" source="y_6HAnA4AnNZ5Ou7yBOp-2" target="y_6HAnA4AnNZ5Ou7yBOp-22">
          <mxGeometry width="50" height="50" relative="1" as="geometry">
            <mxPoint x="400" y="240" as="sourcePoint" />
            <mxPoint x="450" y="190" as="targetPoint" />
          </mxGeometry>
        </mxCell>
        <mxCell id="y_6HAnA4AnNZ5Ou7yBOp-26" value="" style="endArrow=none;html=1;rounded=0;entryX=0;entryY=1;entryDx=0;entryDy=0;exitX=0.75;exitY=0;exitDx=0;exitDy=0;" edge="1" parent="1" source="y_6HAnA4AnNZ5Ou7yBOp-2" target="y_6HAnA4AnNZ5Ou7yBOp-21">
          <mxGeometry width="50" height="50" relative="1" as="geometry">
            <mxPoint x="395" y="180" as="sourcePoint" />
            <mxPoint x="445" y="130" as="targetPoint" />
          </mxGeometry>
        </mxCell>
        <mxCell id="y_6HAnA4AnNZ5Ou7yBOp-27" value="Codigo" style="ellipse;whiteSpace=wrap;html=1;" vertex="1" parent="1">
          <mxGeometry x="220" y="390" width="80" height="50" as="geometry" />
        </mxCell>
        <mxCell id="y_6HAnA4AnNZ5Ou7yBOp-28" value="" style="endArrow=none;html=1;rounded=0;entryX=0.5;entryY=1;entryDx=0;entryDy=0;exitX=0;exitY=0;exitDx=0;exitDy=0;" edge="1" parent="1" source="y_6HAnA4AnNZ5Ou7yBOp-27" target="y_6HAnA4AnNZ5Ou7yBOp-18">
          <mxGeometry width="50" height="50" relative="1" as="geometry">
            <mxPoint x="220" y="385" as="sourcePoint" />
            <mxPoint x="170" y="350" as="targetPoint" />
          </mxGeometry>
        </mxCell>
        <mxCell id="y_6HAnA4AnNZ5Ou7yBOp-29" value="" style="endArrow=none;html=1;rounded=0;entryX=0.422;entryY=0.95;entryDx=0;entryDy=0;entryPerimeter=0;exitX=0.5;exitY=0;exitDx=0;exitDy=0;" edge="1" parent="1" source="y_6HAnA4AnNZ5Ou7yBOp-19" target="y_6HAnA4AnNZ5Ou7yBOp-18">
          <mxGeometry width="50" height="50" relative="1" as="geometry">
            <mxPoint x="110" y="400" as="sourcePoint" />
            <mxPoint x="160" y="350" as="targetPoint" />
          </mxGeometry>
        </mxCell>
        <mxCell id="y_6HAnA4AnNZ5Ou7yBOp-30" value="" style="endArrow=none;html=1;rounded=0;entryX=0.5;entryY=1;entryDx=0;entryDy=0;exitX=0.5;exitY=0;exitDx=0;exitDy=0;" edge="1" parent="1" source="y_6HAnA4AnNZ5Ou7yBOp-20" target="y_6HAnA4AnNZ5Ou7yBOp-18">
          <mxGeometry width="50" height="50" relative="1" as="geometry">
            <mxPoint x="110" y="415" as="sourcePoint" />
            <mxPoint x="160" y="365" as="targetPoint" />
          </mxGeometry>
        </mxCell>
        <mxCell id="y_6HAnA4AnNZ5Ou7yBOp-31" value="Fabricar" style="rhombus;whiteSpace=wrap;html=1;" vertex="1" parent="1">
          <mxGeometry x="130" y="230" width="65" height="50" as="geometry" />
        </mxCell>
        <mxCell id="y_6HAnA4AnNZ5Ou7yBOp-32" style="edgeStyle=orthogonalEdgeStyle;rounded=0;orthogonalLoop=1;jettySize=auto;html=1;exitX=0.5;exitY=0;exitDx=0;exitDy=0;entryX=0.65;entryY=1.05;entryDx=0;entryDy=0;entryPerimeter=0;" edge="1" parent="1" source="y_6HAnA4AnNZ5Ou7yBOp-31" target="y_6HAnA4AnNZ5Ou7yBOp-1">
          <mxGeometry relative="1" as="geometry" />
        </mxCell>
        <mxCell id="y_6HAnA4AnNZ5Ou7yBOp-33" style="edgeStyle=orthogonalEdgeStyle;rounded=0;orthogonalLoop=1;jettySize=auto;html=1;exitX=0.5;exitY=1;exitDx=0;exitDy=0;entryX=0.411;entryY=0;entryDx=0;entryDy=0;entryPerimeter=0;" edge="1" parent="1" source="y_6HAnA4AnNZ5Ou7yBOp-31" target="y_6HAnA4AnNZ5Ou7yBOp-18">
          <mxGeometry relative="1" as="geometry" />
        </mxCell>
        <mxCell id="y_6HAnA4AnNZ5Ou7yBOp-34" value="n:n" style="text;html=1;align=center;verticalAlign=middle;whiteSpace=wrap;rounded=0;" vertex="1" parent="1">
          <mxGeometry x="260" y="110" width="60" height="30" as="geometry" />
        </mxCell>
        <mxCell id="y_6HAnA4AnNZ5Ou7yBOp-35" value="n:n" style="text;html=1;align=center;verticalAlign=middle;whiteSpace=wrap;rounded=0;" vertex="1" parent="1">
          <mxGeometry x="195" y="240" width="60" height="30" as="geometry" />
        </mxCell>
      </root>
    </mxGraphModel>
  </diagram>
</mxfile>
